<?xml version="1.0" encoding="utf-8" ?>
<svg baseProfile="full" height="78mm" version="1.1" viewBox="0,0,200,78" width="200mm" xmlns="http://www.w3.org/2000/svg" xmlns:ev="http://www.w3.org/2001/xml-events" xmlns:xlink="http://www.w3.org/1999/xlink"><defs /><rect fill="#222222" height="78" width="200" x="0" y="0" /><text fill="#FFFFFF" style="font-size:12px; font-family:Arial; font-weight:bold;" x="10" y="20">微信阅读热力图</text><text dominant-baseline="hanging" fill="#FFFFFF" style="font-size:10.0px; font-family:Arial;" x="10" y="30">2025</text><text dominant-baseline="hanging" fill="#FFFFFF" style="font-size:4.125px; font-family:Arial;" x="175" y="35">435 hours</text><text fill="#FFFFFF" style="font-size:2.5px; font-family:Arial" x="10.0" y="44">Jan</text><text fill="#FFFFFF" style="font-size:2.5px; font-family:Arial" x="25.5" y="44">Feb</text><text fill="#FFFFFF" style="font-size:2.5px; font-family:Arial" x="41.0" y="44">Mar</text><text fill="#FFFFFF" style="font-size:2.5px; font-family:Arial" x="56.5" y="44">Apr</text><text fill="#FFFFFF" style="font-size:2.5px; font-family:Arial" x="72.0" y="44">May</text><text fill="#FFFFFF" style="font-size:2.5px; font-family:Arial" x="87.5" y="44">Jun</text><text fill="#FFFFFF" style="font-size:2.5px; font-family:Arial" x="103.0" y="44">Jul</text><text fill="#FFFFFF" style="font-size:2.5px; font-family:Arial" x="118.5" y="44">Aug</text><text fill="#FFFFFF" style="font-size:2.5px; font-family:Arial" x="134.0" y="44">Sep</text><text fill="#FFFFFF" style="font-size:2.5px; font-family:Arial" x="149.5" y="44">Oct</text><text fill="#FFFFFF" style="font-size:2.5px; font-family:Arial" x="165.0" y="44">Nov</text><text fill="#FFFFFF" style="font-size:2.5px; font-family:Arial" x="180.5" y="44">Dec</text><rect fill="#444444" height="2.6" width="2.6" x="10.0" y="45.5"><title>2024-12-30</title></rect><rect fill="#444444" height="2.6" width="2.6" x="10.0" y="49.0"><title>2024-12-31</title></rect><rect fill="#e5f4f7" height="2.6" width="2.6" x="10.0" y="52.5"><title>2025-01-01 10分钟</title></rect><rect fill="#e5f4f7" height="2.6" width="2.6" x="10.0" y="56.0"><title>2025-01-02 9分钟</title></rect><rect fill="#daf5f5" height="2.6" width="2.6" x="10.0" y="59.5"><title>2025-01-03 43分钟</title></rect><rect fill="#daf5f5" height="2.6" width="2.6" x="10.0" y="63.0"><title>2025-01-04 42分钟</title></rect><rect fill="red" height="2.6" width="2.6" x="10.0" y="66.5"><title>2025-01-05 3小时33分钟</title></rect><rect fill="#ffe600" height="2.6" width="2.6" x="13.5" y="45.5"><title>2025-01-06 54分钟</title></rect><rect fill="#ffdb00" height="2.6" width="2.6" x="13.5" y="49.0"><title>2025-01-07 1小时19分钟</title></rect><rect fill="red" height="2.6" width="2.6" x="13.5" y="52.5"><title>2025-01-08 2小时18分钟</title></rect><rect fill="#ffd600" height="2.6" width="2.6" x="13.5" y="56.0"><title>2025-01-09 1小时32分钟</title></rect><rect fill="#ffd700" height="2.6" width="2.6" x="13.5" y="59.5"><title>2025-01-10 1小时28分钟</title></rect><rect fill="#ffd800" height="2.6" width="2.6" x="13.5" y="63.0"><title>2025-01-11 1小时27分钟</title></rect><rect fill="red" height="2.6" width="2.6" x="13.5" y="66.5"><title>2025-01-12 4小时25分钟</title></rect><rect fill="#dbf5f5" height="2.6" width="2.6" x="17.0" y="45.5"><title>2025-01-13 41分钟</title></rect><rect fill="#ffd500" height="2.6" width="2.6" x="17.0" y="49.0"><title>2025-01-14 1小时33分钟</title></rect><rect fill="#e8f4f8" height="2.6" width="2.6" x="17.0" y="52.5"><title>2025-01-15 4秒</title></rect><rect fill="#ffe000" height="2.6" width="2.6" x="17.0" y="56.0"><title>2025-01-16 1小时8分钟</title></rect><rect fill="#dcf4f5" height="2.6" width="2.6" x="17.0" y="59.5"><title>2025-01-17 36分钟</title></rect><rect fill="#ffe700" height="2.6" width="2.6" x="17.0" y="63.0"><title>2025-01-18 54分钟</title></rect><rect fill="#daf5f5" height="2.6" width="2.6" x="17.0" y="66.5"><title>2025-01-19 42分钟</title></rect><rect fill="#e8f4f8" height="2.6" width="2.6" x="20.5" y="45.5"><title>2025-01-20 10秒</title></rect><rect fill="#e7f4f8" height="2.6" width="2.6" x="20.5" y="49.0"><title>2025-01-21 2分钟</title></rect><rect fill="#e8f4f8" height="2.6" width="2.6" x="20.5" y="52.5"><title>2025-01-22 4秒</title></rect><rect fill="#e2f4f7" height="2.6" width="2.6" x="20.5" y="56.0"><title>2025-01-23 18分钟</title></rect><rect fill="#e4f4f7" height="2.6" width="2.6" x="20.5" y="59.5"><title>2025-01-24 12分钟</title></rect><rect fill="#ffe900" height="2.6" width="2.6" x="20.5" y="63.0"><title>2025-01-25 49分钟</title></rect><rect fill="#e3f4f7" height="2.6" width="2.6" x="20.5" y="66.5"><title>2025-01-26 15分钟</title></rect><rect fill="red" height="2.6" width="2.6" x="24.0" y="45.5"><title>2025-01-27 3小时45分钟</title></rect><rect fill="#e6f4f7" height="2.6" width="2.6" x="24.0" y="49.0"><title>2025-01-28 7分钟</title></rect><rect fill="#dff4f6" height="2.6" width="2.6" x="24.0" y="52.5"><title>2025-01-29 27分钟</title></rect><rect fill="#ffd100" height="2.6" width="2.6" x="24.0" y="56.0"><title>2025-01-30 1小时41分钟</title></rect><rect fill="#ffe900" height="2.6" width="2.6" x="24.0" y="59.5"><title>2025-01-31 49分钟</title></rect><rect fill="#ffdd00" height="2.6" width="2.6" x="24.0" y="63.0"><title>2025-02-01 1小时16分钟</title></rect><rect fill="red" height="2.6" width="2.6" x="24.0" y="66.5"><title>2025-02-02 2小时11分钟</title></rect><rect fill="#e6f4f7" height="2.6" width="2.6" x="27.5" y="45.5"><title>2025-02-03 6分钟</title></rect><rect fill="#ddf4f5" height="2.6" width="2.6" x="27.5" y="49.0"><title>2025-02-04 34分钟</title></rect><rect fill="#e5f4f7" height="2.6" width="2.6" x="27.5" y="52.5"><title>2025-02-05 8分钟</title></rect><rect fill="#dff4f6" height="2.6" width="2.6" x="27.5" y="56.0"><title>2025-02-06 27分钟</title></rect><rect fill="#e8f4f8" height="2.6" width="2.6" x="27.5" y="59.5"><title>2025-02-07 7秒</title></rect><rect fill="#dff4f6" height="2.6" width="2.6" x="27.5" y="63.0"><title>2025-02-08 28分钟</title></rect><rect fill="red" height="2.6" width="2.6" x="27.5" y="66.5"><title>2025-02-09 3小时19分钟</title></rect><rect fill="#e6f4f8" height="2.6" width="2.6" x="31.0" y="45.5"><title>2025-02-10 6分钟</title></rect><rect fill="red" height="2.6" width="2.6" x="31.0" y="49.0"><title>2025-02-11 9小时29分钟</title></rect><rect fill="#e4f4f7" height="2.6" width="2.6" x="31.0" y="52.5"><title>2025-02-12 13分钟</title></rect><rect fill="#e8f4f8" height="2.6" width="2.6" x="31.0" y="56.0"><title>2025-02-13 3秒</title></rect><rect fill="#e8f4f8" height="2.6" width="2.6" x="31.0" y="59.5"><title>2025-02-14 34秒</title></rect><rect fill="#e6f4f8" height="2.6" width="2.6" x="31.0" y="63.0"><title>2025-02-15 5分钟</title></rect><rect fill="#e6f4f8" height="2.6" width="2.6" x="31.0" y="66.5"><title>2025-02-16 5分钟</title></rect><rect fill="#444444" height="2.6" width="2.6" x="34.5" y="45.5"><title>2025-02-17</title></rect><rect fill="#e4f4f7" height="2.6" width="2.6" x="34.5" y="49.0"><title>2025-02-18 14分钟</title></rect><rect fill="#e7f4f8" height="2.6" width="2.6" x="34.5" y="52.5"><title>2025-02-19 3分钟</title></rect><rect fill="#e8f4f8" height="2.6" width="2.6" x="34.5" y="56.0"><title>2025-02-20 3秒</title></rect><rect fill="#e6f4f8" height="2.6" width="2.6" x="34.5" y="59.5"><title>2025-02-21 5分钟</title></rect><rect fill="#e8f4f8" height="2.6" width="2.6" x="34.5" y="63.0"><title>2025-02-22 36秒</title></rect><rect fill="#def4f6" height="2.6" width="2.6" x="34.5" y="66.5"><title>2025-02-23 32分钟</title></rect><rect fill="#e1f4f6" height="2.6" width="2.6" x="38.0" y="45.5"><title>2025-02-24 21分钟</title></rect><rect fill="#e8f4f8" height="2.6" width="2.6" x="38.0" y="49.0"><title>2025-02-25 6秒</title></rect><rect fill="#e8f4f8" height="2.6" width="2.6" x="38.0" y="52.5"><title>2025-02-26 1秒</title></rect><rect fill="#e5f4f7" height="2.6" width="2.6" x="38.0" y="56.0"><title>2025-02-27 8分钟</title></rect><rect fill="#e8f4f8" height="2.6" width="2.6" x="38.0" y="59.5"><title>2025-02-28 37秒</title></rect><rect fill="#e5f4f7" height="2.6" width="2.6" x="38.0" y="63.0"><title>2025-03-01 9分钟</title></rect><rect fill="#dff4f6" height="2.6" width="2.6" x="38.0" y="66.5"><title>2025-03-02 29分钟</title></rect><rect fill="#e1f4f6" height="2.6" width="2.6" x="41.5" y="45.5"><title>2025-03-03 21分钟</title></rect><rect fill="red" height="2.6" width="2.6" x="41.5" y="49.0"><title>2025-03-04 3小时38分钟</title></rect><rect fill="#ddf4f5" height="2.6" width="2.6" x="41.5" y="52.5"><title>2025-03-05 35分钟</title></rect><rect fill="#e2f4f7" height="2.6" width="2.6" x="41.5" y="56.0"><title>2025-03-06 17分钟</title></rect><rect fill="red" height="2.6" width="2.6" x="41.5" y="59.5"><title>2025-03-07 2小时53分钟</title></rect><rect fill="red" height="2.6" width="2.6" x="41.5" y="63.0"><title>2025-03-08 3小时48分钟</title></rect><rect fill="red" height="2.6" width="2.6" x="41.5" y="66.5"><title>2025-03-09 8小时40分钟</title></rect><rect fill="red" height="2.6" width="2.6" x="45.0" y="45.5"><title>2025-03-10 3小时38分钟</title></rect><rect fill="red" height="2.6" width="2.6" x="45.0" y="49.0"><title>2025-03-11 2小时15分钟</title></rect><rect fill="#ffd000" height="2.6" width="2.6" x="45.0" y="52.5"><title>2025-03-12 1小时45分钟</title></rect><rect fill="#ffe700" height="2.6" width="2.6" x="45.0" y="56.0"><title>2025-03-13 54分钟</title></rect><rect fill="#ffe300" height="2.6" width="2.6" x="45.0" y="59.5"><title>2025-03-14 1小时2分钟</title></rect><rect fill="red" height="2.6" width="2.6" x="45.0" y="63.0"><title>2025-03-15 5小时2分钟</title></rect><rect fill="#ddf4f5" height="2.6" width="2.6" x="45.0" y="66.5"><title>2025-03-16 34分钟</title></rect><rect fill="red" height="2.6" width="2.6" x="48.5" y="45.5"><title>2025-03-17 2小时24分钟</title></rect><rect fill="red" height="2.6" width="2.6" x="48.5" y="49.0"><title>2025-03-18 2小时12分钟</title></rect><rect fill="#ffe100" height="2.6" width="2.6" x="48.5" y="52.5"><title>2025-03-19 1小时6分钟</title></rect><rect fill="#ffe800" height="2.6" width="2.6" x="48.5" y="56.0"><title>2025-03-20 51分钟</title></rect><rect fill="#ddf4f5" height="2.6" width="2.6" x="48.5" y="59.5"><title>2025-03-21 33分钟</title></rect><rect fill="#def4f6" height="2.6" width="2.6" x="48.5" y="63.0"><title>2025-03-22 30分钟</title></rect><rect fill="#dff4f6" height="2.6" width="2.6" x="48.5" y="66.5"><title>2025-03-23 29分钟</title></rect><rect fill="red" height="2.6" width="2.6" x="52.0" y="45.5"><title>2025-03-24 3小时26分钟</title></rect><rect fill="#daf5f5" height="2.6" width="2.6" x="52.0" y="49.0"><title>2025-03-25 43分钟</title></rect><rect fill="#e0f4f6" height="2.6" width="2.6" x="52.0" y="52.5"><title>2025-03-26 23分钟</title></rect><rect fill="#def4f6" height="2.6" width="2.6" x="52.0" y="56.0"><title>2025-03-27 30分钟</title></rect><rect fill="red" height="2.6" width="2.6" x="52.0" y="59.5"><title>2025-03-28 2小时10分钟</title></rect><rect fill="#ffda00" height="2.6" width="2.6" x="52.0" y="63.0"><title>2025-03-29 1小时22分钟</title></rect><rect fill="#e7f4f8" height="2.6" width="2.6" x="52.0" y="66.5"><title>2025-03-30 2分钟</title></rect><rect fill="#e2f4f6" height="2.6" width="2.6" x="55.5" y="45.5"><title>2025-03-31 20分钟</title></rect><rect fill="#e4f4f7" height="2.6" width="2.6" x="55.5" y="49.0"><title>2025-04-01 14分钟</title></rect><rect fill="red" height="2.6" width="2.6" x="55.5" y="52.5"><title>2025-04-02 2小时40分钟</title></rect><rect fill="#dff4f6" height="2.6" width="2.6" x="55.5" y="56.0"><title>2025-04-03 29分钟</title></rect><rect fill="#ffd900" height="2.6" width="2.6" x="55.5" y="59.5"><title>2025-04-04 1小时24分钟</title></rect><rect fill="#ffd200" height="2.6" width="2.6" x="55.5" y="63.0"><title>2025-04-05 1小时41分钟</title></rect><rect fill="#ffd600" height="2.6" width="2.6" x="55.5" y="66.5"><title>2025-04-06 1小时31分钟</title></rect><rect fill="red" height="2.6" width="2.6" x="59.0" y="45.5"><title>2025-04-07 2小时</title></rect><rect fill="#ffe200" height="2.6" width="2.6" x="59.0" y="49.0"><title>2025-04-08 1小时4分钟</title></rect><rect fill="#ffe000" height="2.6" width="2.6" x="59.0" y="52.5"><title>2025-04-09 1小时9分钟</title></rect><rect fill="#dff4f6" height="2.6" width="2.6" x="59.0" y="56.0"><title>2025-04-10 28分钟</title></rect><rect fill="#def4f6" height="2.6" width="2.6" x="59.0" y="59.5"><title>2025-04-11 31分钟</title></rect><rect fill="#ffd500" height="2.6" width="2.6" x="59.0" y="63.0"><title>2025-04-12 1小时34分钟</title></rect><rect fill="#ffdc00" height="2.6" width="2.6" x="59.0" y="66.5"><title>2025-04-13 1小时18分钟</title></rect><rect fill="red" height="2.6" width="2.6" x="62.5" y="45.5"><title>2025-04-14 2小时49分钟</title></rect><rect fill="#ffd600" height="2.6" width="2.6" x="62.5" y="49.0"><title>2025-04-15 1小时30分钟</title></rect><rect fill="#ffd700" height="2.6" width="2.6" x="62.5" y="52.5"><title>2025-04-16 1小时29分钟</title></rect><rect fill="red" height="2.6" width="2.6" x="62.5" y="56.0"><title>2025-04-17 3小时21分钟</title></rect><rect fill="#ffd700" height="2.6" width="2.6" x="62.5" y="59.5"><title>2025-04-18 1小时30分钟</title></rect><rect fill="#ffe500" height="2.6" width="2.6" x="62.5" y="63.0"><title>2025-04-19 57分钟</title></rect><rect fill="#ffe700" height="2.6" width="2.6" x="62.5" y="66.5"><title>2025-04-20 54分钟</title></rect><rect fill="#def4f6" height="2.6" width="2.6" x="66.0" y="45.5"><title>2025-04-21 30分钟</title></rect><rect fill="#ffdc00" height="2.6" width="2.6" x="66.0" y="49.0"><title>2025-04-22 1小时18分钟</title></rect><rect fill="#ffe100" height="2.6" width="2.6" x="66.0" y="52.5"><title>2025-04-23 1小时7分钟</title></rect><rect fill="#444444" height="2.6" width="2.6" x="66.0" y="56.0"><title>2025-04-24</title></rect><rect fill="#dcf4f5" height="2.6" width="2.6" x="66.0" y="59.5"><title>2025-04-25 36分钟</title></rect><rect fill="red" height="2.6" width="2.6" x="66.0" y="63.0"><title>2025-04-26 2小时7分钟</title></rect><rect fill="#ffcd00" height="2.6" width="2.6" x="66.0" y="66.5"><title>2025-04-27 1小时51分钟</title></rect><rect fill="#ffe500" height="2.6" width="2.6" x="69.5" y="45.5"><title>2025-04-28 57分钟</title></rect><rect fill="#daf5f5" height="2.6" width="2.6" x="69.5" y="49.0"><title>2025-04-29 42分钟</title></rect><rect fill="#dbf4f5" height="2.6" width="2.6" x="69.5" y="52.5"><title>2025-04-30 39分钟</title></rect><rect fill="#ffde00" height="2.6" width="2.6" x="69.5" y="56.0"><title>2025-05-01 1小时13分钟</title></rect><rect fill="#dcf4f5" height="2.6" width="2.6" x="69.5" y="59.5"><title>2025-05-02 38分钟</title></rect><rect fill="#ffe300" height="2.6" width="2.6" x="69.5" y="63.0"><title>2025-05-03 1小时3分钟</title></rect><rect fill="#ffda00" height="2.6" width="2.6" x="69.5" y="66.5"><title>2025-05-04 1小时23分钟</title></rect><rect fill="#e1f4f6" height="2.6" width="2.6" x="73.0" y="45.5"><title>2025-05-05 22分钟</title></rect><rect fill="#daf5f5" height="2.6" width="2.6" x="73.0" y="49.0"><title>2025-05-06 42分钟</title></rect><rect fill="#ffdc00" height="2.6" width="2.6" x="73.0" y="52.5"><title>2025-05-07 1小时19分钟</title></rect><rect fill="#def4f6" height="2.6" width="2.6" x="73.0" y="56.0"><title>2025-05-08 30分钟</title></rect><rect fill="#ffe800" height="2.6" width="2.6" x="73.0" y="59.5"><title>2025-05-09 51分钟</title></rect><rect fill="#ffd400" height="2.6" width="2.6" x="73.0" y="63.0"><title>2025-05-10 1小时35分钟</title></rect><rect fill="#ffd700" height="2.6" width="2.6" x="73.0" y="66.5"><title>2025-05-11 1小时29分钟</title></rect><rect fill="#ffe300" height="2.6" width="2.6" x="76.5" y="45.5"><title>2025-05-12 1小时2分钟</title></rect><rect fill="#def4f6" height="2.6" width="2.6" x="76.5" y="49.0"><title>2025-05-13 30分钟</title></rect><rect fill="red" height="2.6" width="2.6" x="76.5" y="52.5"><title>2025-05-14 1小时58分钟</title></rect><rect fill="#ffd200" height="2.6" width="2.6" x="76.5" y="56.0"><title>2025-05-15 1小时41分钟</title></rect><rect fill="#ddf4f5" height="2.6" width="2.6" x="76.5" y="59.5"><title>2025-05-16 35分钟</title></rect><rect fill="#ffd900" height="2.6" width="2.6" x="76.5" y="63.0"><title>2025-05-17 1小时25分钟</title></rect><rect fill="#dff4f6" height="2.6" width="2.6" x="76.5" y="66.5"><title>2025-05-18 27分钟</title></rect><rect fill="#ffe600" height="2.6" width="2.6" x="80.0" y="45.5"><title>2025-05-19 55分钟</title></rect><rect fill="#ffdb00" height="2.6" width="2.6" x="80.0" y="49.0"><title>2025-05-20 1小时19分钟</title></rect><rect fill="#dbf5f5" height="2.6" width="2.6" x="80.0" y="52.5"><title>2025-05-21 41分钟</title></rect><rect fill="#ddf4f5" height="2.6" width="2.6" x="80.0" y="56.0"><title>2025-05-22 34分钟</title></rect><rect fill="#def4f6" height="2.6" width="2.6" x="80.0" y="59.5"><title>2025-05-23 31分钟</title></rect><rect fill="red" height="2.6" width="2.6" x="80.0" y="63.0"><title>2025-05-24 2小时</title></rect><rect fill="#ffd300" height="2.6" width="2.6" x="80.0" y="66.5"><title>2025-05-25 1小时37分钟</title></rect><rect fill="red" height="2.6" width="2.6" x="83.5" y="45.5"><title>2025-05-26 2小时6分钟</title></rect><rect fill="#ffd600" height="2.6" width="2.6" x="83.5" y="49.0"><title>2025-05-27 1小时30分钟</title></rect><rect fill="#ffd800" height="2.6" width="2.6" x="83.5" y="52.5"><title>2025-05-28 1小时26分钟</title></rect><rect fill="red" height="2.6" width="2.6" x="83.5" y="56.0"><title>2025-05-29 2小时1分钟</title></rect><rect fill="red" height="2.6" width="2.6" x="83.5" y="59.5"><title>2025-05-30 2小时57分钟</title></rect><rect fill="#ddf4f5" height="2.6" width="2.6" x="83.5" y="63.0"><title>2025-05-31 34分钟</title></rect><rect fill="#e6f4f8" height="2.6" width="2.6" x="83.5" y="66.5"><title>2025-06-01 6分钟</title></rect><rect fill="#e5f4f7" height="2.6" width="2.6" x="87.0" y="45.5"><title>2025-06-02 8分钟</title></rect><rect fill="#e4f4f7" height="2.6" width="2.6" x="87.0" y="49.0"><title>2025-06-03 11分钟</title></rect><rect fill="#dcf4f5" height="2.6" width="2.6" x="87.0" y="52.5"><title>2025-06-04 37分钟</title></rect><rect fill="#e3f4f7" height="2.6" width="2.6" x="87.0" y="56.0"><title>2025-06-05 16分钟</title></rect><rect fill="#e5f4f7" height="2.6" width="2.6" x="87.0" y="59.5"><title>2025-06-06 9分钟</title></rect><rect fill="#e6f4f8" height="2.6" width="2.6" x="87.0" y="63.0"><title>2025-06-07 5分钟</title></rect><rect fill="#ffcf00" height="2.6" width="2.6" x="87.0" y="66.5"><title>2025-06-08 1小时46分钟</title></rect><rect fill="#ffe500" height="2.6" width="2.6" x="90.5" y="45.5"><title>2025-06-09 58分钟</title></rect><rect fill="#dbf5f5" height="2.6" width="2.6" x="90.5" y="49.0"><title>2025-06-10 41分钟</title></rect><rect fill="#ffe800" height="2.6" width="2.6" x="90.5" y="52.5"><title>2025-06-11 51分钟</title></rect><rect fill="#e2f4f6" height="2.6" width="2.6" x="90.5" y="56.0"><title>2025-06-12 20分钟</title></rect><rect fill="red" height="2.6" width="2.6" x="90.5" y="59.5"><title>2025-06-13 2小时39分钟</title></rect><rect fill="#ffe600" height="2.6" width="2.6" x="90.5" y="63.0"><title>2025-06-14 55分钟</title></rect><rect fill="#dbf5f5" height="2.6" width="2.6" x="90.5" y="66.5"><title>2025-06-15 41分钟</title></rect><rect fill="#e1f4f6" height="2.6" width="2.6" x="94.0" y="45.5"><title>2025-06-16 21分钟</title></rect><rect fill="#ffdc00" height="2.6" width="2.6" x="94.0" y="49.0"><title>2025-06-17 1小时19分钟</title></rect><rect fill="#ffe800" height="2.6" width="2.6" x="94.0" y="52.5"><title>2025-06-18 50分钟</title></rect><rect fill="#e3f4f7" height="2.6" width="2.6" x="94.0" y="56.0"><title>2025-06-19 15分钟</title></rect><rect fill="#e0f4f6" height="2.6" width="2.6" x="94.0" y="59.5"><title>2025-06-20 26分钟</title></rect><rect fill="#ffea00" height="2.6" width="2.6" x="94.0" y="63.0"><title>2025-06-21 48分钟</title></rect><rect fill="#e2f4f6" height="2.6" width="2.6" x="94.0" y="66.5"><title>2025-06-22 20分钟</title></rect><rect fill="#e1f4f6" height="2.6" width="2.6" x="97.5" y="45.5"><title>2025-06-23 21分钟</title></rect><rect fill="#def4f6" height="2.6" width="2.6" x="97.5" y="49.0"><title>2025-06-24 30分钟</title></rect><rect fill="#444444" height="2.6" width="2.6" x="97.5" y="52.5"><title>2025-06-25</title></rect><rect fill="#e2f4f7" height="2.6" width="2.6" x="97.5" y="56.0"><title>2025-06-26 19分钟</title></rect><rect fill="#444444" height="2.6" width="2.6" x="97.5" y="59.5"><title>2025-06-27</title></rect><rect fill="#e6f4f7" height="2.6" width="2.6" x="97.5" y="63.0"><title>2025-06-28 7分钟</title></rect><rect fill="#dbf5f5" height="2.6" width="2.6" x="97.5" y="66.5"><title>2025-06-29 41分钟</title></rect><rect fill="#e0f4f6" height="2.6" width="2.6" x="101.0" y="45.5"><title>2025-06-30 23分钟</title></rect><rect fill="#e6f4f7" height="2.6" width="2.6" x="101.0" y="49.0"><title>2025-07-01 7分钟</title></rect><rect fill="#def4f6" height="2.6" width="2.6" x="101.0" y="52.5"><title>2025-07-02 30分钟</title></rect><rect fill="#e3f4f7" height="2.6" width="2.6" x="101.0" y="56.0"><title>2025-07-03 15分钟</title></rect><rect fill="red" height="2.6" width="2.6" x="101.0" y="59.5"><title>2025-07-04 5小时31分钟</title></rect><rect fill="red" height="2.6" width="2.6" x="101.0" y="63.0"><title>2025-07-05 3小时35分钟</title></rect><rect fill="red" height="2.6" width="2.6" x="101.0" y="66.5"><title>2025-07-06 2小时11分钟</title></rect><rect fill="#d9f5f4" height="2.6" width="2.6" x="104.5" y="45.5"><title>2025-07-07 45分钟</title></rect><rect fill="#ffe800" height="2.6" width="2.6" x="104.5" y="49.0"><title>2025-07-08 52分钟</title></rect><rect fill="red" height="2.6" width="2.6" x="104.5" y="52.5"><title>2025-07-09 3小时14分钟</title></rect><rect fill="red" height="2.6" width="2.6" x="104.5" y="56.0"><title>2025-07-10 2小时52分钟</title></rect><rect fill="#ffe500" height="2.6" width="2.6" x="104.5" y="59.5"><title>2025-07-11 58分钟</title></rect><rect fill="#def4f6" height="2.6" width="2.6" x="104.5" y="63.0"><title>2025-07-12 32分钟</title></rect><rect fill="#ffce00" height="2.6" width="2.6" x="104.5" y="66.5"><title>2025-07-13 1小时50分钟</title></rect><rect fill="#ffd600" height="2.6" width="2.6" x="108.0" y="45.5"><title>2025-07-14 1小时31分钟</title></rect><rect fill="#dcf4f5" height="2.6" width="2.6" x="108.0" y="49.0"><title>2025-07-15 37分钟</title></rect><rect fill="#e1f4f6" height="2.6" width="2.6" x="108.0" y="52.5"><title>2025-07-16 21分钟</title></rect><rect fill="#e4f4f7" height="2.6" width="2.6" x="108.0" y="56.0"><title>2025-07-17 12分钟</title></rect><rect fill="#ffdc00" height="2.6" width="2.6" x="108.0" y="59.5"><title>2025-07-18 1小时17分钟</title></rect><rect fill="#ffcc00" height="2.6" width="2.6" x="108.0" y="63.0"><title>2025-07-19 1小时53分钟</title></rect><rect fill="red" height="2.6" width="2.6" x="108.0" y="66.5"><title>2025-07-20 2小时43分钟</title></rect><rect fill="#e2f4f6" height="2.6" width="2.6" x="111.5" y="45.5"><title>2025-07-21 19分钟</title></rect><rect fill="#e1f4f6" height="2.6" width="2.6" x="111.5" y="49.0"><title>2025-07-22 20分钟</title></rect><rect fill="#ffd800" height="2.6" width="2.6" x="111.5" y="52.5"><title>2025-07-23 1小时27分钟</title></rect><rect fill="#ffd100" height="2.6" width="2.6" x="111.5" y="56.0"><title>2025-07-24 1小时42分钟</title></rect><rect fill="#ffd300" height="2.6" width="2.6" x="111.5" y="59.5"><title>2025-07-25 1小时39分钟</title></rect><rect fill="red" height="2.6" width="2.6" x="111.5" y="63.0"><title>2025-07-26 2小时11分钟</title></rect><rect fill="red" height="2.6" width="2.6" x="111.5" y="66.5"><title>2025-07-27 2小时31分钟</title></rect><rect fill="#ffe100" height="2.6" width="2.6" x="115.0" y="45.5"><title>2025-07-28 1小时6分钟</title></rect><rect fill="#dcf4f5" height="2.6" width="2.6" x="115.0" y="49.0"><title>2025-07-29 38分钟</title></rect><rect fill="#def4f6" height="2.6" width="2.6" x="115.0" y="52.5"><title>2025-07-30 31分钟</title></rect><rect fill="#ffe000" height="2.6" width="2.6" x="115.0" y="56.0"><title>2025-07-31 1小时9分钟</title></rect><rect fill="#ffd700" height="2.6" width="2.6" x="115.0" y="59.5"><title>2025-08-01 1小时29分钟</title></rect><rect fill="#e2f4f7" height="2.6" width="2.6" x="115.0" y="63.0"><title>2025-08-02 17分钟</title></rect><rect fill="red" height="2.6" width="2.6" x="115.0" y="66.5"><title>2025-08-03 4小时57分钟</title></rect><rect fill="red" height="2.6" width="2.6" x="118.5" y="45.5"><title>2025-08-04 4小时58分钟</title></rect><rect fill="red" height="2.6" width="2.6" x="118.5" y="49.0"><title>2025-08-05 3小时55分钟</title></rect><rect fill="red" height="2.6" width="2.6" x="118.5" y="52.5"><title>2025-08-06 4小时41分钟</title></rect><rect fill="red" height="2.6" width="2.6" x="118.5" y="56.0"><title>2025-08-07 3小时24分钟</title></rect><rect fill="red" height="2.6" width="2.6" x="118.5" y="59.5"><title>2025-08-08 4小时5分钟</title></rect><rect fill="#dff4f6" height="2.6" width="2.6" x="118.5" y="63.0"><title>2025-08-09 29分钟</title></rect><rect fill="red" height="2.6" width="2.6" x="118.5" y="66.5"><title>2025-08-10 3小时30分钟</title></rect><rect fill="#ffcd00" height="2.6" width="2.6" x="122.0" y="45.5"><title>2025-08-11 1小时51分钟</title></rect><rect fill="#ffe800" height="2.6" width="2.6" x="122.0" y="49.0"><title>2025-08-12 51分钟</title></rect><rect fill="#ffd800" height="2.6" width="2.6" x="122.0" y="52.5"><title>2025-08-13 1小时26分钟</title></rect><rect fill="red" height="2.6" width="2.6" x="122.0" y="56.0"><title>2025-08-14 3小时3分钟</title></rect><rect fill="#ffe400" height="2.6" width="2.6" x="122.0" y="59.5"><title>2025-08-15 1小时</title></rect><rect fill="#e7f4f8" height="2.6" width="2.6" x="122.0" y="63.0"><title>2025-08-16 2分钟</title></rect><rect fill="#ffcd00" height="2.6" width="2.6" x="122.0" y="66.5"><title>2025-08-17 1小时52分钟</title></rect><rect fill="#ffe800" height="2.6" width="2.6" x="125.5" y="45.5"><title>2025-08-18 50分钟</title></rect><rect fill="#daf5f5" height="2.6" width="2.6" x="125.5" y="49.0"><title>2025-08-19 43分钟</title></rect><rect fill="#ddf4f5" height="2.6" width="2.6" x="125.5" y="52.5"><title>2025-08-20 34分钟</title></rect><rect fill="red" height="2.6" width="2.6" x="125.5" y="56.0"><title>2025-08-21 2小时25分钟</title></rect><rect fill="#ffe600" height="2.6" width="2.6" x="125.5" y="59.5"><title>2025-08-22 55分钟</title></rect><rect fill="red" height="2.6" width="2.6" x="125.5" y="63.0"><title>2025-08-23 2小时34分钟</title></rect><rect fill="red" height="2.6" width="2.6" x="125.5" y="66.5"><title>2025-08-24 3小时25分钟</title></rect><rect fill="red" height="2.6" width="2.6" x="129.0" y="45.5"><title>2025-08-25 3小时36分钟</title></rect><rect fill="red" height="2.6" width="2.6" x="129.0" y="49.0"><title>2025-08-26 5小时13分钟</title></rect><rect fill="red" height="2.6" width="2.6" x="129.0" y="52.5"><title>2025-08-27 2小时34分钟</title></rect><rect fill="#ffd300" height="2.6" width="2.6" x="129.0" y="56.0"><title>2025-08-28 1小时38分钟</title></rect><rect fill="#ffd600" height="2.6" width="2.6" x="129.0" y="59.5"><title>2025-08-29 1小时30分钟</title></rect><rect fill="red" height="2.6" width="2.6" x="129.0" y="63.0"><title>2025-08-30 3小时23分钟</title></rect><rect fill="red" height="2.6" width="2.6" x="129.0" y="66.5"><title>2025-08-31 6小时</title></rect><rect fill="red" height="2.6" width="2.6" x="132.5" y="45.5"><title>2025-09-01 2小时52分钟</title></rect><rect fill="red" height="2.6" width="2.6" x="132.5" y="49.0"><title>2025-09-02 2小时7分钟</title></rect><rect fill="#ffe600" height="2.6" width="2.6" x="132.5" y="52.5"><title>2025-09-03 56分钟</title></rect><rect fill="#e1f4f6" height="2.6" width="2.6" x="132.5" y="56.0"><title>2025-09-04 20分钟</title></rect><rect fill="#ffdf00" height="2.6" width="2.6" x="132.5" y="59.5"><title>2025-09-05 1小时11分钟</title></rect><rect fill="#e7f4f8" height="2.6" width="2.6" x="132.5" y="63.0"><title>2025-09-06 2分钟</title></rect><rect fill="red" height="2.6" width="2.6" x="132.5" y="66.5"><title>2025-09-07 2小时14分钟</title></rect><rect fill="#daf5f5" height="2.6" width="2.6" x="136.0" y="45.5"><title>2025-09-08 43分钟</title></rect><rect fill="#ffe300" height="2.6" width="2.6" x="136.0" y="49.0"><title>2025-09-09 1小时2分钟</title></rect><rect fill="#def4f6" height="2.6" width="2.6" x="136.0" y="52.5"><title>2025-09-10 31分钟</title></rect><rect fill="#ffe200" height="2.6" width="2.6" x="136.0" y="56.0"><title>2025-09-11 1小时5分钟</title></rect><rect fill="#e0f4f6" height="2.6" width="2.6" x="136.0" y="59.5"><title>2025-09-12 23分钟</title></rect><rect fill="#e0f4f6" height="2.6" width="2.6" x="136.0" y="63.0"><title>2025-09-13 23分钟</title></rect><rect fill="#ffe800" height="2.6" width="2.6" x="136.0" y="66.5"><title>2025-09-14 50分钟</title></rect><rect fill="#e1f4f6" height="2.6" width="2.6" x="139.5" y="45.5"><title>2025-09-15 22分钟</title></rect><rect fill="#e1f4f6" height="2.6" width="2.6" x="139.5" y="49.0"><title>2025-09-16 22分钟</title></rect><rect fill="#e0f4f6" height="2.6" width="2.6" x="139.5" y="52.5"><title>2025-09-17 24分钟</title></rect><rect fill="#def4f6" height="2.6" width="2.6" x="139.5" y="56.0"><title>2025-09-18 30分钟</title></rect><rect fill="#e6f4f7" height="2.6" width="2.6" x="139.5" y="59.5"><title>2025-09-19 6分钟</title></rect><rect fill="#e7f4f8" height="2.6" width="2.6" x="139.5" y="63.0"><title>2025-09-20 3分钟</title></rect><rect fill="red" height="2.6" width="2.6" x="139.5" y="66.5"><title>2025-09-21 3小时20分钟</title></rect><rect fill="#e6f4f8" height="2.6" width="2.6" x="143.0" y="45.5"><title>2025-09-22 5分钟</title></rect><rect fill="#e3f4f7" height="2.6" width="2.6" x="143.0" y="49.0"><title>2025-09-23 15分钟</title></rect><rect fill="#ffcb00" height="2.6" width="2.6" x="143.0" y="52.5"><title>2025-09-24 1小时57分钟</title></rect><rect fill="#e1f4f6" height="2.6" width="2.6" x="143.0" y="56.0"><title>2025-09-25 22分钟</title></rect><rect fill="#dbf5f5" height="2.6" width="2.6" x="143.0" y="59.5"><title>2025-09-26 40分钟</title></rect><rect fill="#e2f4f6" height="2.6" width="2.6" x="143.0" y="63.0"><title>2025-09-27 20分钟</title></rect><rect fill="#ffda00" height="2.6" width="2.6" x="143.0" y="66.5"><title>2025-09-28 1小时23分钟</title></rect><rect fill="#dff4f6" height="2.6" width="2.6" x="146.5" y="45.5"><title>2025-09-29 29分钟</title></rect><rect fill="#e1f4f6" height="2.6" width="2.6" x="146.5" y="49.0"><title>2025-09-30 23分钟</title></rect><rect fill="#dff4f6" height="2.6" width="2.6" x="146.5" y="52.5"><title>2025-10-01 28分钟</title></rect><rect fill="#ffdd00" height="2.6" width="2.6" x="146.5" y="56.0"><title>2025-10-02 1小时16分钟</title></rect><rect fill="#e6f4f7" height="2.6" width="2.6" x="146.5" y="59.5"><title>2025-10-03 7分钟</title></rect><rect fill="#def4f6" height="2.6" width="2.6" x="146.5" y="63.0"><title>2025-10-04 31分钟</title></rect><rect fill="#e7f4f8" height="2.6" width="2.6" x="146.5" y="66.5"><title>2025-10-05 2分钟</title></rect><rect fill="#e5f4f7" height="2.6" width="2.6" x="150.0" y="45.5"><title>2025-10-06 8分钟</title></rect><rect fill="#ffe800" height="2.6" width="2.6" x="150.0" y="49.0"><title>2025-10-07 52分钟</title></rect><rect fill="#ffce00" height="2.6" width="2.6" x="150.0" y="52.5"><title>2025-10-08 1小时50分钟</title></rect><rect fill="#e2f4f7" height="2.6" width="2.6" x="150.0" y="56.0"><title>2025-10-09 18分钟</title></rect><rect fill="#e7f4f8" height="2.6" width="2.6" x="150.0" y="59.5"><title>2025-10-10 2分钟</title></rect><rect fill="#dcf4f5" height="2.6" width="2.6" x="150.0" y="63.0"><title>2025-10-11 36分钟</title></rect><rect fill="#ffdf00" height="2.6" width="2.6" x="150.0" y="66.5"><title>2025-10-12 1小时11分钟</title></rect><rect fill="#def4f6" height="2.6" width="2.6" x="153.5" y="45.5"><title>2025-10-13 32分钟</title></rect><rect fill="red" height="2.6" width="2.6" x="153.5" y="49.0"><title>2025-10-14 4小时44分钟</title></rect><rect fill="#e2f4f6" height="2.6" width="2.6" x="153.5" y="52.5"><title>2025-10-15 19分钟</title></rect><rect fill="#e6f4f8" height="2.6" width="2.6" x="153.5" y="56.0"><title>2025-10-16 5分钟</title></rect><rect fill="#ffd300" height="2.6" width="2.6" x="153.5" y="59.5"><title>2025-10-17 1小时39分钟</title></rect><rect fill="#dcf4f5" height="2.6" width="2.6" x="153.5" y="63.0"><title>2025-10-18 37分钟</title></rect><rect fill="#e4f4f7" height="2.6" width="2.6" x="153.5" y="66.5"><title>2025-10-19 12分钟</title></rect><rect fill="#def4f6" height="2.6" width="2.6" x="157.0" y="45.5"><title>2025-10-20 30分钟</title></rect><rect fill="#ddf4f5" height="2.6" width="2.6" x="157.0" y="49.0"><title>2025-10-21 33分钟</title></rect><rect fill="#e2f4f7" height="2.6" width="2.6" x="157.0" y="52.5"><title>2025-10-22 18分钟</title></rect><rect fill="#e7f4f8" height="2.6" width="2.6" x="157.0" y="56.0"><title>2025-10-23 2分钟</title></rect><rect fill="#dff4f6" height="2.6" width="2.6" x="157.0" y="59.5"><title>2025-10-24 28分钟</title></rect><rect fill="#def4f6" height="2.6" width="2.6" x="157.0" y="63.0"><title>2025-10-25 30分钟</title></rect><rect fill="red" height="2.6" width="2.6" x="157.0" y="66.5"><title>2025-10-26 2小时41分钟</title></rect><rect fill="#daf5f5" height="2.6" width="2.6" x="160.5" y="45.5"><title>2025-10-27 44分钟</title></rect><rect fill="#e7f4f8" height="2.6" width="2.6" x="160.5" y="49.0"><title>2025-10-28 2分钟</title></rect><rect fill="#e7f4f8" height="2.6" width="2.6" x="160.5" y="52.5"><title>2025-10-29 2分钟</title></rect><rect fill="#e5f4f7" height="2.6" width="2.6" x="160.5" y="56.0"><title>2025-10-30 8分钟</title></rect><rect fill="#e4f4f7" height="2.6" width="2.6" x="160.5" y="59.5"><title>2025-10-31 11分钟</title></rect><rect fill="#e6f4f8" height="2.6" width="2.6" x="160.5" y="63.0"><title>2025-11-01 5分钟</title></rect><rect fill="red" height="2.6" width="2.6" x="160.5" y="66.5"><title>2025-11-02 3小时49分钟</title></rect><rect fill="#ffdb00" height="2.6" width="2.6" x="164.0" y="45.5"><title>2025-11-03 1小时20分钟</title></rect><rect fill="#ffd400" height="2.6" width="2.6" x="164.0" y="49.0"><title>2025-11-04 1小时35分钟</title></rect><rect fill="#e1f4f6" height="2.6" width="2.6" x="164.0" y="52.5"><title>2025-11-05 21分钟</title></rect><rect fill="#e1f4f6" height="2.6" width="2.6" x="164.0" y="56.0"><title>2025-11-06 20分钟</title></rect><rect fill="#e7f4f8" height="2.6" width="2.6" x="164.0" y="59.5"><title>2025-11-07 2分钟</title></rect><rect fill="#e3f4f7" height="2.6" width="2.6" x="164.0" y="63.0"><title>2025-11-08 14分钟</title></rect><rect fill="#ffe000" height="2.6" width="2.6" x="164.0" y="66.5"><title>2025-11-09 1小时8分钟</title></rect><rect fill="#e3f4f7" height="2.6" width="2.6" x="167.5" y="45.5"><title>2025-11-10 16分钟</title></rect><rect fill="#e6f4f8" height="2.6" width="2.6" x="167.5" y="49.0"><title>2025-11-11 5分钟</title></rect><rect fill="#ffe700" height="2.6" width="2.6" x="167.5" y="52.5"><title>2025-11-12 54分钟</title></rect><rect fill="red" height="2.6" width="2.6" x="167.5" y="56.0"><title>2025-11-13 3小时14分钟</title></rect><rect fill="red" height="2.6" width="2.6" x="167.5" y="59.5"><title>2025-11-14 3小时10分钟</title></rect><rect fill="red" height="2.6" width="2.6" x="167.5" y="63.0"><title>2025-11-15 2小时30分钟</title></rect><rect fill="#dbf5f5" height="2.6" width="2.6" x="167.5" y="66.5"><title>2025-11-16 40分钟</title></rect><rect fill="#ffe300" height="2.6" width="2.6" x="171.0" y="45.5"><title>2025-11-17 1小时2分钟</title></rect><rect fill="red" height="2.6" width="2.6" x="171.0" y="49.0"><title>2025-11-18 2小时14分钟</title></rect><rect fill="red" height="2.6" width="2.6" x="171.0" y="52.5"><title>2025-11-19 2小时6分钟</title></rect><rect fill="#e2f4f6" height="2.6" width="2.6" x="171.0" y="56.0"><title>2025-11-20 20分钟</title></rect><rect fill="#444444" height="2.6" width="2.6" x="171.0" y="59.5"><title>2025-11-21</title></rect><rect fill="#e3f4f7" height="2.6" width="2.6" x="171.0" y="63.0"><title>2025-11-22 14分钟</title></rect><rect fill="#dff4f6" height="2.6" width="2.6" x="171.0" y="66.5"><title>2025-11-23 29分钟</title></rect><rect fill="#444444" height="2.6" width="2.6" x="174.5" y="45.5"><title>2025-11-24</title></rect><rect fill="#e2f4f7" height="2.6" width="2.6" x="174.5" y="49.0"><title>2025-11-25 17分钟</title></rect><rect fill="red" height="2.6" width="2.6" x="174.5" y="52.5"><title>2025-11-26 2小时57分钟</title></rect><rect fill="red" height="2.6" width="2.6" x="174.5" y="56.0"><title>2025-11-27 3小时1分钟</title></rect><rect fill="#ffe700" height="2.6" width="2.6" x="174.5" y="59.5"><title>2025-11-28 54分钟</title></rect><rect fill="#ffdd00" height="2.6" width="2.6" x="174.5" y="63.0"><title>2025-11-29 1小时14分钟</title></rect><rect fill="#ffd200" height="2.6" width="2.6" x="174.5" y="66.5"><title>2025-11-30 1小时41分钟</title></rect><rect fill="#e7f4f8" height="2.6" width="2.6" x="178.0" y="45.5"><title>2025-12-01 4分钟</title></rect><rect fill="#e7f4f8" height="2.6" width="2.6" x="178.0" y="49.0"><title>2025-12-02 4分钟</title></rect><rect fill="#e0f4f6" height="2.6" width="2.6" x="178.0" y="52.5"><title>2025-12-03 26分钟</title></rect><rect fill="#ffd700" height="2.6" width="2.6" x="178.0" y="56.0"><title>2025-12-04 1小时29分钟</title></rect><rect fill="#e0f4f6" height="2.6" width="2.6" x="178.0" y="59.5"><title>2025-12-05 25分钟</title></rect><rect fill="#e7f4f8" height="2.6" width="2.6" x="178.0" y="63.0"><title>2025-12-06 2分钟</title></rect><rect fill="#ffe200" height="2.6" width="2.6" x="178.0" y="66.5"><title>2025-12-07 1小时5分钟</title></rect><rect fill="#e2f4f7" height="2.6" width="2.6" x="181.5" y="45.5"><title>2025-12-08 18分钟</title></rect><rect fill="#e1f4f6" height="2.6" width="2.6" x="181.5" y="49.0"><title>2025-12-09 21分钟</title></rect><rect fill="#e2f4f7" height="2.6" width="2.6" x="181.5" y="52.5"><title>2025-12-10 19分钟</title></rect><rect fill="#e6f4f8" height="2.6" width="2.6" x="181.5" y="56.0"><title>2025-12-11 6分钟</title></rect><rect fill="#e5f4f7" height="2.6" width="2.6" x="181.5" y="59.5"><title>2025-12-12 10分钟</title></rect><rect fill="#e6f4f8" height="2.6" width="2.6" x="181.5" y="63.0"><title>2025-12-13 5分钟</title></rect><rect fill="#ddf4f5" height="2.6" width="2.6" x="181.5" y="66.5"><title>2025-12-14 35分钟</title></rect><rect fill="#e6f4f7" height="2.6" width="2.6" x="185.0" y="45.5"><title>2025-12-15 7分钟</title></rect><rect fill="#ffe500" height="2.6" width="2.6" x="185.0" y="49.0"><title>2025-12-16 57分钟</title></rect><rect fill="#ffe600" height="2.6" width="2.6" x="185.0" y="52.5"><title>2025-12-17 56分钟</title></rect><rect fill="#def4f6" height="2.6" width="2.6" x="185.0" y="56.0"><title>2025-12-18 31分钟</title></rect><rect fill="#e0f4f6" height="2.6" width="2.6" x="185.0" y="59.5"><title>2025-12-19 24分钟</title></rect><rect fill="#ffea00" height="2.6" width="2.6" x="185.0" y="63.0"><title>2025-12-20 47分钟</title></rect><rect fill="#ffda00" height="2.6" width="2.6" x="185.0" y="66.5"><title>2025-12-21 1小时22分钟</title></rect><rect fill="#e4f4f7" height="2.6" width="2.6" x="188.5" y="45.5"><title>2025-12-22 11分钟</title></rect><rect fill="#def4f6" height="2.6" width="2.6" x="188.5" y="49.0"><title>2025-12-23 30分钟</title></rect><rect fill="red" height="2.6" width="2.6" x="188.5" y="52.5"><title>2025-12-24 3小时19分钟</title></rect><rect fill="red" height="2.6" width="2.6" x="188.5" y="56.0"><title>2025-12-25 3小时24分钟</title></rect><rect fill="red" height="2.6" width="2.6" x="188.5" y="59.5"><title>2025-12-26 8小时2分钟</title></rect><rect fill="#dff4f6" height="2.6" width="2.6" x="188.5" y="63.0"><title>2025-12-27 29分钟</title></rect><rect fill="#ffdf00" height="2.6" width="2.6" x="188.5" y="66.5"><title>2025-12-28 1小时11分钟</title></rect><rect fill="#e8f4f8" height="2.6" width="2.6" x="192.0" y="45.5"><title>2025-12-29 31秒</title></rect><rect fill="#def4f6" height="2.6" width="2.6" x="192.0" y="49.0"><title>2025-12-30 32分钟</title></rect><rect fill="#ffdf00" height="2.6" width="2.6" x="192.0" y="52.5"><title>2025-12-31 1小时11分钟</title></rect></svg>